<svg xmlns="http://www.w3.org/2000/svg" viewBox="0 0 1920 1080" width="1920" height="1080" font-family="Carlito"><rect width="1920" height="1080" fill="#ffffff"/><defs><linearGradient id="gr-hh62mp" gradientUnits="userSpaceOnUse" x1="960" y1="0" x2="960" y2="1080"><stop offset="0" stop-color="#ebfaff"/><stop offset="0.01" stop-color="#ebfaff"/><stop offset="0.35" stop-color="#ffffff"/><stop offset="0.99" stop-color="#ffffff"/><stop offset="1" stop-color="#ffffff"/></linearGradient></defs><rect width="1920" height="1080" fill="url(#gr-hh62mp)"/><defs><linearGradient id="gr-uz686p" gradientUnits="userSpaceOnUse" x1="463.7" y1="552.57" x2="1456.3" y2="1545.17"><stop offset="0" stop-color="#7fcbf9"/><stop offset="0.98" stop-color="#c1efff"/><stop offset="1" stop-color="#c1efff"/></linearGradient></defs><rect x="0" y="1016.27" width="1920" height="65.2" fill="url(#gr-uz686p)" stroke="none"/><text xml:space="preserve" x="58.68" y="1061.87" font-size="40" fill="#ffffff" font-weight="700" textLength="143.54" lengthAdjust="spacing">NYCU CS</text><defs><linearGradient id="gr-smob99" gradientUnits="userSpaceOnUse" x1="1175.65" y1="-59.52" x2="1623.21" y2="388.04"><stop offset="0" stop-color="#9fe6ff"/><stop offset="0.5" stop-color="#ddf6ff"/><stop offset="1" stop-color="#f3fcff"/></linearGradient></defs><path d="M 961.43 154.7 C 1445.21 154.7 1837.42 163.27 1837.42 173.83 L 961.43 173.83 Z" fill="url(#gr-smob99)" stroke="none" stroke-linejoin="round"/><defs><linearGradient id="gr-1u45hqv" gradientUnits="userSpaceOnUse" x1="315.23" y1="-54.77" x2="753.3" y2="383.3"><stop offset="0" stop-color="#89e0ff"/><stop offset="1" stop-color="#a3e7ff"/></linearGradient></defs><rect x="105.77" y="154.7" width="856.99" height="19.13" fill="url(#gr-1u45hqv)" stroke="none"/><image href="/assets/f19b88aca4625b953da7a4d8a4e854832f53d39d402ab8efa61b9be3a9f8cdef" x="37.08" y="14.23" width="117.8" height="154.79" preserveAspectRatio="none"/><text xml:space="preserve" x="716.76" y="104.23" font-size="72" fill="#3297fc" font-weight="700" textLength="509.17" lengthAdjust="spacing">System overview</text><rect x="160" y="320" width="480" height="200" rx="32" ry="32" fill="#e8f1fe" stroke="#4f81bd" stroke-width="3"/><text xml:space="preserve" x="258.89" y="436.9" font-size="48" fill="#000000" font-weight="700" textLength="282.21" lengthAdjust="spacing">Audio capture</text><rect x="1280" y="320" width="480" height="200" rx="33.33" ry="33.33" fill="#e8f1fe" stroke="#4f81bd" stroke-width="3"/><text xml:space="preserve" class="cjk" x="1424" y="436.9" font-size="48" fill="#000000" font-family="Noto Sans TC" textLength="192" lengthAdjust="spacing">語音辨識</text><ellipse cx="1520" cy="820" rx="240" ry="100" fill="none" stroke="#4f81bd" stroke-width="3" stroke-dasharray="12 9"/><path d="M640,420 L1269.2,420" fill="none" stroke="#4f81bd" stroke-width="4" stroke-linejoin="round"/><polygon points="1280,420 1268,426 1268,414" fill="#4f81bd"/><path d="M400,520 L400,820 L1269.2,820" fill="none" stroke="#4f81bd" stroke-width="4" stroke-linejoin="round"/><polygon points="1280,820 1268,826 1268,814" fill="#4f81bd"/><text xml:space="preserve" x="174.4" y="941.48" font-size="36" fill="#000000" font-weight="700">•</text><text xml:space="preserve" x="228.4" y="941.48" font-size="36" fill="#000000" font-weight="700" textLength="77.17" lengthAdjust="spacing">ASR: </text><text xml:space="preserve" x="305.57" y="941.48" font-size="36" fill="#000000" textLength="448.03" lengthAdjust="spacing">Automatic Speech Recognition</text><image href="/assets/9f86d081884c7d659a2feaa0c55ad015a3bf4f1b2b0b822cd15d6c15b0f00a08" x="760" y="600" width="400" height="225" preserveAspectRatio="none"/><text xml:space="preserve" x="1868.5" y="1057.08" font-size="28" fill="#ffffff" font-weight="700" textLength="14.19" lengthAdjust="spacing">1</text></svg>